<svg xmlns="http://www.w3.org/2000/svg" xmlns:xlink="http://www.w3.org/1999/xlink" width="500" zoomAndPan="magnify" viewBox="0 0 375 374.999991" height="500" preserveAspectRatio="xMidYMid meet" version="1.0"><defs><g/></defs><g fill="#000000" fill-opacity="0.302"><g transform="translate(87.714632, 318.090477)"><g><path d="M 8.609375 -197.65625 C 21.085938 -204.144531 34.0625 -209.632812 47.53125 -214.125 C 61.007812 -218.613281 74.488281 -222.609375 87.96875 -226.109375 L 96.578125 -228.34375 C 104.316406 -229.84375 112.050781 -231.28125 119.78125 -232.65625 C 127.519531 -234.03125 135.382812 -234.96875 143.375 -235.46875 C 145.125 -235.71875 146.804688 -235.84375 148.421875 -235.84375 C 150.046875 -235.84375 151.734375 -235.84375 153.484375 -235.84375 C 146.242188 -234.09375 138.878906 -232.28125 131.390625 -230.40625 C 123.910156 -228.53125 116.550781 -226.722656 109.3125 -224.984375 C 96.582031 -222.234375 83.914062 -219.296875 71.3125 -216.171875 C 58.707031 -213.054688 46.164062 -209.378906 33.6875 -205.140625 C 29.445312 -203.890625 25.265625 -202.453125 21.140625 -200.828125 C 17.023438 -199.210938 12.847656 -197.40625 8.609375 -195.40625 C 7.609375 -195.90625 7.609375 -196.65625 8.609375 -197.65625 Z M 218.609375 -45.296875 C 218.117188 -43.046875 216.875 -41.796875 214.875 -41.546875 C 201.144531 -39.054688 187.351562 -36 173.5 -32.375 C 159.65625 -28.757812 146.117188 -24.582031 132.890625 -19.84375 C 126.648438 -17.59375 120.347656 -15.34375 113.984375 -13.09375 C 107.617188 -10.851562 101.316406 -8.359375 95.078125 -5.609375 L 94.703125 -5.609375 C 94.453125 -5.359375 94.078125 -5.171875 93.578125 -5.046875 C 93.085938 -4.921875 92.59375 -4.734375 92.09375 -4.484375 C 90.09375 -3.492188 88.03125 -2.625 85.90625 -1.875 C 83.789062 -1.125 81.734375 -0.25 79.734375 0.75 L 79.359375 1.125 C 77.859375 2.125 75.050781 3.367188 70.9375 4.859375 C 66.820312 6.359375 62.953125 7.609375 59.328125 8.609375 C 55.710938 9.609375 53.90625 10.109375 53.90625 10.109375 C 53.90625 10.109375 53.46875 10.171875 52.59375 10.296875 C 51.71875 10.421875 50.90625 10.484375 50.15625 10.484375 C 47.164062 10.984375 44.171875 10.984375 41.171875 10.484375 C 38.179688 9.984375 35.9375 8.109375 34.4375 4.859375 C 33.6875 3.367188 33.5625 1.625 34.0625 -0.375 C 29.320312 -2.375 25.640625 -5.804688 23.015625 -10.671875 C 20.398438 -15.535156 19.96875 -20.335938 21.71875 -25.078125 C 20.71875 -31.566406 19.90625 -38.117188 19.28125 -44.734375 C 18.65625 -51.347656 18.09375 -57.898438 17.59375 -64.390625 L 13.109375 -109.3125 L 8.609375 -151.984375 C 3.867188 -157.222656 1.875 -163.335938 2.625 -170.328125 C 3.375 -177.316406 6.492188 -183.179688 11.984375 -187.921875 C 12.234375 -188.421875 12.484375 -188.921875 12.734375 -189.421875 C 12.984375 -189.921875 13.226562 -190.421875 13.46875 -190.921875 C 17.46875 -192.660156 21.460938 -194.28125 25.453125 -195.78125 C 29.441406 -197.28125 33.4375 -198.65625 37.4375 -199.90625 C 49.914062 -204.144531 62.453125 -207.820312 75.046875 -210.9375 C 87.648438 -214.0625 100.316406 -216.867188 113.046875 -219.359375 C 123.035156 -221.609375 132.894531 -224.039062 142.625 -226.65625 C 152.351562 -229.28125 162.085938 -231.84375 171.828125 -234.34375 C 173.078125 -234.09375 174.382812 -233.90625 175.75 -233.78125 C 177.125 -233.65625 178.3125 -233.34375 179.3125 -232.84375 L 185.296875 -230.59375 C 186.296875 -229.84375 187.296875 -229.03125 188.296875 -228.15625 C 189.296875 -227.289062 190.296875 -226.484375 191.296875 -225.734375 C 192.535156 -221.734375 193.40625 -217.800781 193.90625 -213.9375 C 194.40625 -210.070312 194.28125 -206.265625 193.53125 -202.515625 L 174.8125 -196.90625 C 170.820312 -195.65625 166.644531 -194.40625 162.28125 -193.15625 C 157.914062 -191.914062 153.609375 -190.671875 149.359375 -189.421875 C 148.359375 -188.921875 147.609375 -188.671875 147.109375 -188.671875 C 142.367188 -187.421875 136.816406 -185.859375 130.453125 -183.984375 C 124.085938 -182.117188 117.722656 -180.25 111.359375 -178.375 C 105.003906 -176.5 99.578125 -174.8125 95.078125 -173.3125 C 90.585938 -171.820312 87.84375 -170.828125 86.84375 -170.328125 C 80.851562 -168.328125 74.863281 -166.203125 68.875 -163.953125 C 62.882812 -161.710938 57.019531 -159.34375 51.28125 -156.84375 L 50.53125 -156.09375 C 50.78125 -154.851562 51.09375 -152.796875 51.46875 -149.921875 C 51.84375 -147.054688 52.21875 -144.375 52.59375 -141.875 C 52.96875 -139.375 53.15625 -137.753906 53.15625 -137.015625 C 63.632812 -141.503906 74.050781 -145.929688 84.40625 -150.296875 C 94.769531 -154.660156 105.316406 -158.84375 116.046875 -162.84375 C 122.035156 -164.332031 128.085938 -165.890625 134.203125 -167.515625 C 140.316406 -169.140625 146.367188 -170.828125 152.359375 -172.578125 L 157.21875 -173.703125 C 159.46875 -174.191406 161.648438 -174.5 163.765625 -174.625 C 165.890625 -174.75 168.078125 -174.9375 170.328125 -175.1875 C 175.066406 -175.4375 179.554688 -175.125 183.796875 -174.25 C 188.046875 -173.382812 191.414062 -170.703125 193.90625 -166.203125 C 194.40625 -165.703125 194.71875 -165.203125 194.84375 -164.703125 C 194.96875 -164.210938 195.15625 -163.71875 195.40625 -163.21875 C 195.90625 -162.46875 196.28125 -161.71875 196.53125 -160.96875 C 196.78125 -160.21875 197.03125 -159.46875 197.28125 -158.71875 C 197.53125 -158.46875 197.78125 -158.34375 198.03125 -158.34375 C 201.519531 -156.601562 203.640625 -153.484375 204.390625 -148.984375 C 205.140625 -145.492188 204.578125 -141.9375 202.703125 -138.3125 C 200.835938 -134.695312 198.15625 -132.015625 194.65625 -130.265625 C 190.664062 -128.523438 186.609375 -127.46875 182.484375 -127.09375 C 178.367188 -126.71875 174.191406 -126.03125 169.953125 -125.03125 C 165.460938 -124.28125 160.90625 -123.46875 156.28125 -122.59375 C 151.664062 -121.71875 147.113281 -120.660156 142.625 -119.421875 C 133.644531 -116.921875 124.722656 -114.234375 115.859375 -111.359375 C 106.992188 -108.492188 98.195312 -105.191406 89.46875 -101.453125 C 83.976562 -99.203125 78.675781 -96.828125 73.5625 -94.328125 C 68.445312 -91.835938 63.265625 -89.21875 58.015625 -86.46875 L 60.265625 -62.140625 C 60.265625 -61.890625 60.265625 -61.703125 60.265625 -61.578125 C 60.265625 -61.453125 60.265625 -61.140625 60.265625 -60.640625 L 61.390625 -61.390625 C 65.628906 -63.390625 69.804688 -65.195312 73.921875 -66.8125 C 78.046875 -68.4375 82.101562 -70.125 86.09375 -71.875 L 117.921875 -84.234375 C 120.660156 -85.472656 123.460938 -86.59375 126.328125 -87.59375 C 129.203125 -88.59375 132.015625 -89.59375 134.765625 -90.59375 C 139.253906 -92.34375 143.742188 -94.023438 148.234375 -95.640625 C 152.734375 -97.265625 157.226562 -98.828125 161.71875 -100.328125 L 176.3125 -104.8125 C 178.3125 -105.3125 180.304688 -106 182.296875 -106.875 C 184.296875 -107.75 186.296875 -108.4375 188.296875 -108.9375 C 195.535156 -110.4375 201.460938 -109.8125 206.078125 -107.0625 C 210.691406 -104.3125 214.367188 -100.316406 217.109375 -95.078125 C 219.859375 -89.835938 221.921875 -84.097656 223.296875 -77.859375 C 224.671875 -71.617188 225.484375 -65.878906 225.734375 -60.640625 C 225.984375 -57.398438 225.421875 -54.46875 224.046875 -51.84375 C 222.671875 -49.226562 220.859375 -47.046875 218.609375 -45.296875 Z M 128.03125 -124.65625 C 122.289062 -122.90625 116.488281 -121.15625 110.625 -119.40625 C 104.757812 -117.664062 98.957031 -115.796875 93.21875 -113.796875 C 89.46875 -112.796875 85.78125 -111.734375 82.15625 -110.609375 C 78.539062 -109.492188 74.988281 -108.4375 71.5 -107.4375 C 70.75 -103.195312 68.753906 -99.703125 65.515625 -96.953125 C 74.742188 -101.691406 84.160156 -105.929688 93.765625 -109.671875 C 103.378906 -113.421875 112.800781 -117.164062 122.03125 -120.90625 C 124.03125 -121.90625 126.15625 -122.78125 128.40625 -123.53125 Z M 45.296875 4.859375 C 48.035156 5.109375 51.148438 5.171875 54.640625 5.046875 C 58.140625 4.921875 60.140625 4.734375 60.640625 4.484375 C 61.140625 4.484375 61.515625 4.363281 61.765625 4.125 C 63.265625 3.375 64.757812 2.625 66.25 1.875 C 67.75 1.125 69.125 0.375 70.375 -0.375 C 73.375 -1.875 76.304688 -3.367188 79.171875 -4.859375 C 82.046875 -6.359375 84.851562 -7.859375 87.59375 -9.359375 L 87.59375 -10.109375 C 84.351562 -8.859375 80.984375 -7.609375 77.484375 -6.359375 C 73.992188 -5.109375 70.5 -3.863281 67 -2.625 C 63.507812 -1.375 59.953125 -0.0625 56.328125 1.3125 C 52.710938 2.6875 49.035156 3.867188 45.296875 4.859375 Z M 45.296875 4.859375 "/></g></g></g><g fill="#000000" fill-opacity="0.302"><g transform="translate(278.243285, 318.090477)"><g><path d="M 61.765625 -25.828125 C 63.765625 -23.578125 64.828125 -21.328125 64.953125 -19.078125 C 65.078125 -16.835938 64.640625 -14.722656 63.640625 -12.734375 L 63.265625 -10.859375 C 61.765625 -6.367188 59.078125 -2.75 55.203125 0 C 51.335938 2.75 47.160156 4.242188 42.671875 4.484375 C 38.179688 4.734375 33.941406 3.363281 29.953125 0.375 C 29.703125 0.125 29.453125 -0.125 29.203125 -0.375 C 28.953125 -0.625 28.578125 -0.875 28.078125 -1.125 C 25.828125 -1.125 24.328125 -2.125 23.578125 -4.125 C 23.328125 -4.863281 23.078125 -5.609375 22.828125 -6.359375 C 22.578125 -7.109375 22.453125 -7.984375 22.453125 -8.984375 C 21.210938 -11.484375 20.59375 -14.101562 20.59375 -16.84375 C 20.59375 -19.84375 21.585938 -23.085938 23.578125 -26.578125 C 25.578125 -28.828125 27.453125 -30.695312 29.203125 -32.1875 C 29.703125 -32.4375 30.195312 -32.75 30.6875 -33.125 C 31.1875 -33.5 31.5625 -33.8125 31.8125 -34.0625 C 33.3125 -35.3125 34.875 -36.3125 36.5 -37.0625 C 38.125 -37.8125 40.054688 -38.0625 42.296875 -37.8125 L 44.546875 -37.8125 C 48.535156 -37.5625 52.023438 -36.3125 55.015625 -34.0625 C 58.015625 -31.820312 60.265625 -29.078125 61.765625 -25.828125 Z M 61.765625 -25.828125 "/></g></g></g><g fill="#000000" fill-opacity="0.502"><g transform="translate(68.629533, 309.190959)"><g><path d="M 8.609375 -197.65625 C 21.085938 -204.144531 34.0625 -209.632812 47.53125 -214.125 C 61.007812 -218.613281 74.488281 -222.609375 87.96875 -226.109375 L 96.578125 -228.34375 C 104.316406 -229.84375 112.050781 -231.28125 119.78125 -232.65625 C 127.519531 -234.03125 135.382812 -234.96875 143.375 -235.46875 C 145.125 -235.71875 146.804688 -235.84375 148.421875 -235.84375 C 150.046875 -235.84375 151.734375 -235.84375 153.484375 -235.84375 C 146.242188 -234.09375 138.878906 -232.28125 131.390625 -230.40625 C 123.910156 -228.53125 116.550781 -226.722656 109.3125 -224.984375 C 96.582031 -222.234375 83.914062 -219.296875 71.3125 -216.171875 C 58.707031 -213.054688 46.164062 -209.378906 33.6875 -205.140625 C 29.445312 -203.890625 25.265625 -202.453125 21.140625 -200.828125 C 17.023438 -199.210938 12.847656 -197.40625 8.609375 -195.40625 C 7.609375 -195.90625 7.609375 -196.65625 8.609375 -197.65625 Z M 218.609375 -45.296875 C 218.117188 -43.046875 216.875 -41.796875 214.875 -41.546875 C 201.144531 -39.054688 187.351562 -36 173.5 -32.375 C 159.65625 -28.757812 146.117188 -24.582031 132.890625 -19.84375 C 126.648438 -17.59375 120.347656 -15.34375 113.984375 -13.09375 C 107.617188 -10.851562 101.316406 -8.359375 95.078125 -5.609375 L 94.703125 -5.609375 C 94.453125 -5.359375 94.078125 -5.171875 93.578125 -5.046875 C 93.085938 -4.921875 92.59375 -4.734375 92.09375 -4.484375 C 90.09375 -3.492188 88.03125 -2.625 85.90625 -1.875 C 83.789062 -1.125 81.734375 -0.25 79.734375 0.75 L 79.359375 1.125 C 77.859375 2.125 75.050781 3.367188 70.9375 4.859375 C 66.820312 6.359375 62.953125 7.609375 59.328125 8.609375 C 55.710938 9.609375 53.90625 10.109375 53.90625 10.109375 C 53.90625 10.109375 53.46875 10.171875 52.59375 10.296875 C 51.71875 10.421875 50.90625 10.484375 50.15625 10.484375 C 47.164062 10.984375 44.171875 10.984375 41.171875 10.484375 C 38.179688 9.984375 35.9375 8.109375 34.4375 4.859375 C 33.6875 3.367188 33.5625 1.625 34.0625 -0.375 C 29.320312 -2.375 25.640625 -5.804688 23.015625 -10.671875 C 20.398438 -15.535156 19.96875 -20.335938 21.71875 -25.078125 C 20.71875 -31.566406 19.90625 -38.117188 19.28125 -44.734375 C 18.65625 -51.347656 18.09375 -57.898438 17.59375 -64.390625 L 13.109375 -109.3125 L 8.609375 -151.984375 C 3.867188 -157.222656 1.875 -163.335938 2.625 -170.328125 C 3.375 -177.316406 6.492188 -183.179688 11.984375 -187.921875 C 12.234375 -188.421875 12.484375 -188.921875 12.734375 -189.421875 C 12.984375 -189.921875 13.226562 -190.421875 13.46875 -190.921875 C 17.46875 -192.660156 21.460938 -194.28125 25.453125 -195.78125 C 29.441406 -197.28125 33.4375 -198.65625 37.4375 -199.90625 C 49.914062 -204.144531 62.453125 -207.820312 75.046875 -210.9375 C 87.648438 -214.0625 100.316406 -216.867188 113.046875 -219.359375 C 123.035156 -221.609375 132.894531 -224.039062 142.625 -226.65625 C 152.351562 -229.28125 162.085938 -231.84375 171.828125 -234.34375 C 173.078125 -234.09375 174.382812 -233.90625 175.75 -233.78125 C 177.125 -233.65625 178.3125 -233.34375 179.3125 -232.84375 L 185.296875 -230.59375 C 186.296875 -229.84375 187.296875 -229.03125 188.296875 -228.15625 C 189.296875 -227.289062 190.296875 -226.484375 191.296875 -225.734375 C 192.535156 -221.734375 193.40625 -217.800781 193.90625 -213.9375 C 194.40625 -210.070312 194.28125 -206.265625 193.53125 -202.515625 L 174.8125 -196.90625 C 170.820312 -195.65625 166.644531 -194.40625 162.28125 -193.15625 C 157.914062 -191.914062 153.609375 -190.671875 149.359375 -189.421875 C 148.359375 -188.921875 147.609375 -188.671875 147.109375 -188.671875 C 142.367188 -187.421875 136.816406 -185.859375 130.453125 -183.984375 C 124.085938 -182.117188 117.722656 -180.25 111.359375 -178.375 C 105.003906 -176.5 99.578125 -174.8125 95.078125 -173.3125 C 90.585938 -171.820312 87.84375 -170.828125 86.84375 -170.328125 C 80.851562 -168.328125 74.863281 -166.203125 68.875 -163.953125 C 62.882812 -161.710938 57.019531 -159.34375 51.28125 -156.84375 L 50.53125 -156.09375 C 50.78125 -154.851562 51.09375 -152.796875 51.46875 -149.921875 C 51.84375 -147.054688 52.21875 -144.375 52.59375 -141.875 C 52.96875 -139.375 53.15625 -137.753906 53.15625 -137.015625 C 63.632812 -141.503906 74.050781 -145.929688 84.40625 -150.296875 C 94.769531 -154.660156 105.316406 -158.84375 116.046875 -162.84375 C 122.035156 -164.332031 128.085938 -165.890625 134.203125 -167.515625 C 140.316406 -169.140625 146.367188 -170.828125 152.359375 -172.578125 L 157.21875 -173.703125 C 159.46875 -174.191406 161.648438 -174.5 163.765625 -174.625 C 165.890625 -174.75 168.078125 -174.9375 170.328125 -175.1875 C 175.066406 -175.4375 179.554688 -175.125 183.796875 -174.25 C 188.046875 -173.382812 191.414062 -170.703125 193.90625 -166.203125 C 194.40625 -165.703125 194.71875 -165.203125 194.84375 -164.703125 C 194.96875 -164.210938 195.15625 -163.71875 195.40625 -163.21875 C 195.90625 -162.46875 196.28125 -161.71875 196.53125 -160.96875 C 196.78125 -160.21875 197.03125 -159.46875 197.28125 -158.71875 C 197.53125 -158.46875 197.78125 -158.34375 198.03125 -158.34375 C 201.519531 -156.601562 203.640625 -153.484375 204.390625 -148.984375 C 205.140625 -145.492188 204.578125 -141.9375 202.703125 -138.3125 C 200.835938 -134.695312 198.15625 -132.015625 194.65625 -130.265625 C 190.664062 -128.523438 186.609375 -127.46875 182.484375 -127.09375 C 178.367188 -126.71875 174.191406 -126.03125 169.953125 -125.03125 C 165.460938 -124.28125 160.90625 -123.46875 156.28125 -122.59375 C 151.664062 -121.71875 147.113281 -120.660156 142.625 -119.421875 C 133.644531 -116.921875 124.722656 -114.234375 115.859375 -111.359375 C 106.992188 -108.492188 98.195312 -105.191406 89.46875 -101.453125 C 83.976562 -99.203125 78.675781 -96.828125 73.5625 -94.328125 C 68.445312 -91.835938 63.265625 -89.21875 58.015625 -86.46875 L 60.265625 -62.140625 C 60.265625 -61.890625 60.265625 -61.703125 60.265625 -61.578125 C 60.265625 -61.453125 60.265625 -61.140625 60.265625 -60.640625 L 61.390625 -61.390625 C 65.628906 -63.390625 69.804688 -65.195312 73.921875 -66.8125 C 78.046875 -68.4375 82.101562 -70.125 86.09375 -71.875 L 117.921875 -84.234375 C 120.660156 -85.472656 123.460938 -86.59375 126.328125 -87.59375 C 129.203125 -88.59375 132.015625 -89.59375 134.765625 -90.59375 C 139.253906 -92.34375 143.742188 -94.023438 148.234375 -95.640625 C 152.734375 -97.265625 157.226562 -98.828125 161.71875 -100.328125 L 176.3125 -104.8125 C 178.3125 -105.3125 180.304688 -106 182.296875 -106.875 C 184.296875 -107.75 186.296875 -108.4375 188.296875 -108.9375 C 195.535156 -110.4375 201.460938 -109.8125 206.078125 -107.0625 C 210.691406 -104.3125 214.367188 -100.316406 217.109375 -95.078125 C 219.859375 -89.835938 221.921875 -84.097656 223.296875 -77.859375 C 224.671875 -71.617188 225.484375 -65.878906 225.734375 -60.640625 C 225.984375 -57.398438 225.421875 -54.46875 224.046875 -51.84375 C 222.671875 -49.226562 220.859375 -47.046875 218.609375 -45.296875 Z M 128.03125 -124.65625 C 122.289062 -122.90625 116.488281 -121.15625 110.625 -119.40625 C 104.757812 -117.664062 98.957031 -115.796875 93.21875 -113.796875 C 89.46875 -112.796875 85.78125 -111.734375 82.15625 -110.609375 C 78.539062 -109.492188 74.988281 -108.4375 71.5 -107.4375 C 70.75 -103.195312 68.753906 -99.703125 65.515625 -96.953125 C 74.742188 -101.691406 84.160156 -105.929688 93.765625 -109.671875 C 103.378906 -113.421875 112.800781 -117.164062 122.03125 -120.90625 C 124.03125 -121.90625 126.15625 -122.78125 128.40625 -123.53125 Z M 45.296875 4.859375 C 48.035156 5.109375 51.148438 5.171875 54.640625 5.046875 C 58.140625 4.921875 60.140625 4.734375 60.640625 4.484375 C 61.140625 4.484375 61.515625 4.363281 61.765625 4.125 C 63.265625 3.375 64.757812 2.625 66.25 1.875 C 67.75 1.125 69.125 0.375 70.375 -0.375 C 73.375 -1.875 76.304688 -3.367188 79.171875 -4.859375 C 82.046875 -6.359375 84.851562 -7.859375 87.59375 -9.359375 L 87.59375 -10.109375 C 84.351562 -8.859375 80.984375 -7.609375 77.484375 -6.359375 C 73.992188 -5.109375 70.5 -3.863281 67 -2.625 C 63.507812 -1.375 59.953125 -0.0625 56.328125 1.3125 C 52.710938 2.6875 49.035156 3.867188 45.296875 4.859375 Z M 45.296875 4.859375 "/></g></g></g><g fill="#000000" fill-opacity="0.502"><g transform="translate(259.158187, 309.190959)"><g><path d="M 61.765625 -25.828125 C 63.765625 -23.578125 64.828125 -21.328125 64.953125 -19.078125 C 65.078125 -16.835938 64.640625 -14.722656 63.640625 -12.734375 L 63.265625 -10.859375 C 61.765625 -6.367188 59.078125 -2.75 55.203125 0 C 51.335938 2.75 47.160156 4.242188 42.671875 4.484375 C 38.179688 4.734375 33.941406 3.363281 29.953125 0.375 C 29.703125 0.125 29.453125 -0.125 29.203125 -0.375 C 28.953125 -0.625 28.578125 -0.875 28.078125 -1.125 C 25.828125 -1.125 24.328125 -2.125 23.578125 -4.125 C 23.328125 -4.863281 23.078125 -5.609375 22.828125 -6.359375 C 22.578125 -7.109375 22.453125 -7.984375 22.453125 -8.984375 C 21.210938 -11.484375 20.59375 -14.101562 20.59375 -16.84375 C 20.59375 -19.84375 21.585938 -23.085938 23.578125 -26.578125 C 25.578125 -28.828125 27.453125 -30.695312 29.203125 -32.1875 C 29.703125 -32.4375 30.195312 -32.75 30.6875 -33.125 C 31.1875 -33.5 31.5625 -33.8125 31.8125 -34.0625 C 33.3125 -35.3125 34.875 -36.3125 36.5 -37.0625 C 38.125 -37.8125 40.054688 -38.0625 42.296875 -37.8125 L 44.546875 -37.8125 C 48.535156 -37.5625 52.023438 -36.3125 55.015625 -34.0625 C 58.015625 -31.820312 60.265625 -29.078125 61.765625 -25.828125 Z M 61.765625 -25.828125 "/></g></g></g><g fill="#f381cf" fill-opacity="1"><g transform="translate(49.54447, 300.29144)"><g><path d="M 8.609375 -197.65625 C 21.085938 -204.144531 34.0625 -209.632812 47.53125 -214.125 C 61.007812 -218.613281 74.488281 -222.609375 87.96875 -226.109375 L 96.578125 -228.34375 C 104.316406 -229.84375 112.050781 -231.28125 119.78125 -232.65625 C 127.519531 -234.03125 135.382812 -234.96875 143.375 -235.46875 C 145.125 -235.71875 146.804688 -235.84375 148.421875 -235.84375 C 150.046875 -235.84375 151.734375 -235.84375 153.484375 -235.84375 C 146.242188 -234.09375 138.878906 -232.28125 131.390625 -230.40625 C 123.910156 -228.53125 116.550781 -226.722656 109.3125 -224.984375 C 96.582031 -222.234375 83.914062 -219.296875 71.3125 -216.171875 C 58.707031 -213.054688 46.164062 -209.378906 33.6875 -205.140625 C 29.445312 -203.890625 25.265625 -202.453125 21.140625 -200.828125 C 17.023438 -199.210938 12.847656 -197.40625 8.609375 -195.40625 C 7.609375 -195.90625 7.609375 -196.65625 8.609375 -197.65625 Z M 218.609375 -45.296875 C 218.117188 -43.046875 216.875 -41.796875 214.875 -41.546875 C 201.144531 -39.054688 187.351562 -36 173.5 -32.375 C 159.65625 -28.757812 146.117188 -24.582031 132.890625 -19.84375 C 126.648438 -17.59375 120.347656 -15.34375 113.984375 -13.09375 C 107.617188 -10.851562 101.316406 -8.359375 95.078125 -5.609375 L 94.703125 -5.609375 C 94.453125 -5.359375 94.078125 -5.171875 93.578125 -5.046875 C 93.085938 -4.921875 92.59375 -4.734375 92.09375 -4.484375 C 90.09375 -3.492188 88.03125 -2.625 85.90625 -1.875 C 83.789062 -1.125 81.734375 -0.25 79.734375 0.75 L 79.359375 1.125 C 77.859375 2.125 75.050781 3.367188 70.9375 4.859375 C 66.820312 6.359375 62.953125 7.609375 59.328125 8.609375 C 55.710938 9.609375 53.90625 10.109375 53.90625 10.109375 C 53.90625 10.109375 53.46875 10.171875 52.59375 10.296875 C 51.71875 10.421875 50.90625 10.484375 50.15625 10.484375 C 47.164062 10.984375 44.171875 10.984375 41.171875 10.484375 C 38.179688 9.984375 35.9375 8.109375 34.4375 4.859375 C 33.6875 3.367188 33.5625 1.625 34.0625 -0.375 C 29.320312 -2.375 25.640625 -5.804688 23.015625 -10.671875 C 20.398438 -15.535156 19.96875 -20.335938 21.71875 -25.078125 C 20.71875 -31.566406 19.90625 -38.117188 19.28125 -44.734375 C 18.65625 -51.347656 18.09375 -57.898438 17.59375 -64.390625 L 13.109375 -109.3125 L 8.609375 -151.984375 C 3.867188 -157.222656 1.875 -163.335938 2.625 -170.328125 C 3.375 -177.316406 6.492188 -183.179688 11.984375 -187.921875 C 12.234375 -188.421875 12.484375 -188.921875 12.734375 -189.421875 C 12.984375 -189.921875 13.226562 -190.421875 13.46875 -190.921875 C 17.46875 -192.660156 21.460938 -194.28125 25.453125 -195.78125 C 29.441406 -197.28125 33.4375 -198.65625 37.4375 -199.90625 C 49.914062 -204.144531 62.453125 -207.820312 75.046875 -210.9375 C 87.648438 -214.0625 100.316406 -216.867188 113.046875 -219.359375 C 123.035156 -221.609375 132.894531 -224.039062 142.625 -226.65625 C 152.351562 -229.28125 162.085938 -231.84375 171.828125 -234.34375 C 173.078125 -234.09375 174.382812 -233.90625 175.75 -233.78125 C 177.125 -233.65625 178.3125 -233.34375 179.3125 -232.84375 L 185.296875 -230.59375 C 186.296875 -229.84375 187.296875 -229.03125 188.296875 -228.15625 C 189.296875 -227.289062 190.296875 -226.484375 191.296875 -225.734375 C 192.535156 -221.734375 193.40625 -217.800781 193.90625 -213.9375 C 194.40625 -210.070312 194.28125 -206.265625 193.53125 -202.515625 L 174.8125 -196.90625 C 170.820312 -195.65625 166.644531 -194.40625 162.28125 -193.15625 C 157.914062 -191.914062 153.609375 -190.671875 149.359375 -189.421875 C 148.359375 -188.921875 147.609375 -188.671875 147.109375 -188.671875 C 142.367188 -187.421875 136.816406 -185.859375 130.453125 -183.984375 C 124.085938 -182.117188 117.722656 -180.25 111.359375 -178.375 C 105.003906 -176.5 99.578125 -174.8125 95.078125 -173.3125 C 90.585938 -171.820312 87.84375 -170.828125 86.84375 -170.328125 C 80.851562 -168.328125 74.863281 -166.203125 68.875 -163.953125 C 62.882812 -161.710938 57.019531 -159.34375 51.28125 -156.84375 L 50.53125 -156.09375 C 50.78125 -154.851562 51.09375 -152.796875 51.46875 -149.921875 C 51.84375 -147.054688 52.21875 -144.375 52.59375 -141.875 C 52.96875 -139.375 53.15625 -137.753906 53.15625 -137.015625 C 63.632812 -141.503906 74.050781 -145.929688 84.40625 -150.296875 C 94.769531 -154.660156 105.316406 -158.84375 116.046875 -162.84375 C 122.035156 -164.332031 128.085938 -165.890625 134.203125 -167.515625 C 140.316406 -169.140625 146.367188 -170.828125 152.359375 -172.578125 L 157.21875 -173.703125 C 159.46875 -174.191406 161.648438 -174.5 163.765625 -174.625 C 165.890625 -174.75 168.078125 -174.9375 170.328125 -175.1875 C 175.066406 -175.4375 179.554688 -175.125 183.796875 -174.25 C 188.046875 -173.382812 191.414062 -170.703125 193.90625 -166.203125 C 194.40625 -165.703125 194.71875 -165.203125 194.84375 -164.703125 C 194.96875 -164.210938 195.15625 -163.71875 195.40625 -163.21875 C 195.90625 -162.46875 196.28125 -161.71875 196.53125 -160.96875 C 196.78125 -160.21875 197.03125 -159.46875 197.28125 -158.71875 C 197.53125 -158.46875 197.78125 -158.34375 198.03125 -158.34375 C 201.519531 -156.601562 203.640625 -153.484375 204.390625 -148.984375 C 205.140625 -145.492188 204.578125 -141.9375 202.703125 -138.3125 C 200.835938 -134.695312 198.15625 -132.015625 194.65625 -130.265625 C 190.664062 -128.523438 186.609375 -127.46875 182.484375 -127.09375 C 178.367188 -126.71875 174.191406 -126.03125 169.953125 -125.03125 C 165.460938 -124.28125 160.90625 -123.46875 156.28125 -122.59375 C 151.664062 -121.71875 147.113281 -120.660156 142.625 -119.421875 C 133.644531 -116.921875 124.722656 -114.234375 115.859375 -111.359375 C 106.992188 -108.492188 98.195312 -105.191406 89.46875 -101.453125 C 83.976562 -99.203125 78.675781 -96.828125 73.5625 -94.328125 C 68.445312 -91.835938 63.265625 -89.21875 58.015625 -86.46875 L 60.265625 -62.140625 C 60.265625 -61.890625 60.265625 -61.703125 60.265625 -61.578125 C 60.265625 -61.453125 60.265625 -61.140625 60.265625 -60.640625 L 61.390625 -61.390625 C 65.628906 -63.390625 69.804688 -65.195312 73.921875 -66.8125 C 78.046875 -68.4375 82.101562 -70.125 86.09375 -71.875 L 117.921875 -84.234375 C 120.660156 -85.472656 123.460938 -86.59375 126.328125 -87.59375 C 129.203125 -88.59375 132.015625 -89.59375 134.765625 -90.59375 C 139.253906 -92.34375 143.742188 -94.023438 148.234375 -95.640625 C 152.734375 -97.265625 157.226562 -98.828125 161.71875 -100.328125 L 176.3125 -104.8125 C 178.3125 -105.3125 180.304688 -106 182.296875 -106.875 C 184.296875 -107.75 186.296875 -108.4375 188.296875 -108.9375 C 195.535156 -110.4375 201.460938 -109.8125 206.078125 -107.0625 C 210.691406 -104.3125 214.367188 -100.316406 217.109375 -95.078125 C 219.859375 -89.835938 221.921875 -84.097656 223.296875 -77.859375 C 224.671875 -71.617188 225.484375 -65.878906 225.734375 -60.640625 C 225.984375 -57.398438 225.421875 -54.46875 224.046875 -51.84375 C 222.671875 -49.226562 220.859375 -47.046875 218.609375 -45.296875 Z M 128.03125 -124.65625 C 122.289062 -122.90625 116.488281 -121.15625 110.625 -119.40625 C 104.757812 -117.664062 98.957031 -115.796875 93.21875 -113.796875 C 89.46875 -112.796875 85.78125 -111.734375 82.15625 -110.609375 C 78.539062 -109.492188 74.988281 -108.4375 71.5 -107.4375 C 70.75 -103.195312 68.753906 -99.703125 65.515625 -96.953125 C 74.742188 -101.691406 84.160156 -105.929688 93.765625 -109.671875 C 103.378906 -113.421875 112.800781 -117.164062 122.03125 -120.90625 C 124.03125 -121.90625 126.15625 -122.78125 128.40625 -123.53125 Z M 45.296875 4.859375 C 48.035156 5.109375 51.148438 5.171875 54.640625 5.046875 C 58.140625 4.921875 60.140625 4.734375 60.640625 4.484375 C 61.140625 4.484375 61.515625 4.363281 61.765625 4.125 C 63.265625 3.375 64.757812 2.625 66.25 1.875 C 67.75 1.125 69.125 0.375 70.375 -0.375 C 73.375 -1.875 76.304688 -3.367188 79.171875 -4.859375 C 82.046875 -6.359375 84.851562 -7.859375 87.59375 -9.359375 L 87.59375 -10.109375 C 84.351562 -8.859375 80.984375 -7.609375 77.484375 -6.359375 C 73.992188 -5.109375 70.5 -3.863281 67 -2.625 C 63.507812 -1.375 59.953125 -0.0625 56.328125 1.3125 C 52.710938 2.6875 49.035156 3.867188 45.296875 4.859375 Z M 45.296875 4.859375 "/></g></g></g><g fill="#f381cf" fill-opacity="1"><g transform="translate(240.073124, 300.29144)"><g><path d="M 61.765625 -25.828125 C 63.765625 -23.578125 64.828125 -21.328125 64.953125 -19.078125 C 65.078125 -16.835938 64.640625 -14.722656 63.640625 -12.734375 L 63.265625 -10.859375 C 61.765625 -6.367188 59.078125 -2.75 55.203125 0 C 51.335938 2.75 47.160156 4.242188 42.671875 4.484375 C 38.179688 4.734375 33.941406 3.363281 29.953125 0.375 C 29.703125 0.125 29.453125 -0.125 29.203125 -0.375 C 28.953125 -0.625 28.578125 -0.875 28.078125 -1.125 C 25.828125 -1.125 24.328125 -2.125 23.578125 -4.125 C 23.328125 -4.863281 23.078125 -5.609375 22.828125 -6.359375 C 22.578125 -7.109375 22.453125 -7.984375 22.453125 -8.984375 C 21.210938 -11.484375 20.59375 -14.101562 20.59375 -16.84375 C 20.59375 -19.84375 21.585938 -23.085938 23.578125 -26.578125 C 25.578125 -28.828125 27.453125 -30.695312 29.203125 -32.1875 C 29.703125 -32.4375 30.195312 -32.75 30.6875 -33.125 C 31.1875 -33.5 31.5625 -33.8125 31.8125 -34.0625 C 33.3125 -35.3125 34.875 -36.3125 36.5 -37.0625 C 38.125 -37.8125 40.054688 -38.0625 42.296875 -37.8125 L 44.546875 -37.8125 C 48.535156 -37.5625 52.023438 -36.3125 55.015625 -34.0625 C 58.015625 -31.820312 60.265625 -29.078125 61.765625 -25.828125 Z M 61.765625 -25.828125 "/></g></g></g></svg>